<svg width="27" height="26" viewBox="0 0 27 26" fill="none" xmlns="http://www.w3.org/2000/svg">
<g filter="url(#filter0_d_2123_1909)">
<path d="M13.7333 22.5111C19.1335 22.5111 23.5111 18.1334 23.5111 12.7333C23.5111 7.33316 19.1335 2.95551 13.7333 2.95551C8.33323 2.95551 3.95557 7.33316 3.95557 12.7333C3.95557 18.1334 8.33323 22.5111 13.7333 22.5111Z" fill="#97BFEB"/>
<path d="M13.7333 23.5111C19.6857 23.5111 24.5111 18.6857 24.5111 12.7333C24.5111 6.78088 19.6857 1.95551 13.7333 1.95551C7.78094 1.95551 2.95557 6.78088 2.95557 12.7333C2.95557 18.6857 7.78094 23.5111 13.7333 23.5111Z" stroke="white" stroke-width="2"/>
</g>
<g clip-path="url(#clip0_2123_1909)">
<path d="M16.5697 9.0307H10.869C10.6694 9.03372 10.5079 9.1942 10.5037 9.39381V10.0085H16.9333V9.39381C16.9299 9.19452 16.7691 9.03381 16.5697 9.0307Z" fill="white"/>
<path d="M16.8445 17.0012V18.38L19.5111 18.3677V17.0012H16.8445Z" fill="white"/>
<path d="M11.0667 10.4826V18.4067L16.3704 18.3821V10.4826H11.0667ZM12.9926 17.5048H12.0741V17.0308H12.9926V17.5048ZM12.9926 16.1122H12.0741V15.6382H12.9926V16.1122ZM12.9926 14.7196H12.0741V14.2456H12.9926V14.7196ZM12.9926 13.327H12.0741V12.853H12.9926V13.327ZM12.9926 11.9345H12.0741V11.4604H12.9926V11.9345ZM15.2741 17.5641H14.3852V17.09H15.2741V17.5641ZM15.2741 16.1419H14.3852V15.6678H15.2741V16.1419ZM15.2741 14.7196H14.3852V14.2456H15.2741V14.7196ZM15.2741 13.327H14.3852V12.853H15.2741V13.327ZM15.2741 11.9345H14.3852V11.4604H15.2741V11.9345Z" fill="white"/>
<path d="M19.5111 14.1271H16.8445V15.0456H19.5111V14.1271Z" fill="white"/>
<path d="M8.31468 11.5493C8.12164 11.5441 7.96093 11.6963 7.95566 11.8893C7.95563 11.8908 7.9556 11.8923 7.95557 11.8939V18.421L10.5926 18.4089V11.5493H8.31468ZM9.46668 17.5641H8.9926V16.5567H9.46668V17.5641ZM9.46668 15.4901H8.9926V14.453H9.46668V15.4901ZM9.46668 13.416H8.9926V12.379H9.46668V13.416Z" fill="white"/>
<path d="M19.5111 15.5196H16.8445V16.527H19.5111V15.5196Z" fill="white"/>
<path d="M19.1519 7.04553H14.4785C14.2811 7.04598 14.1207 7.20497 14.1184 7.40236V8.1122H19.511V7.40236C19.5092 7.20515 19.3491 7.04607 19.1519 7.04553Z" fill="white"/>
<path d="M19.5111 12.7345H16.8445V13.653H19.5111V12.7345Z" fill="white"/>
<path d="M17.4074 9.97888V10.2322C17.4047 10.3673 17.2974 10.477 17.1624 10.4826H16.8445V10.8974H19.5111V9.97888H17.4074Z" fill="white"/>
<path d="M16.7373 8.58636C17.1148 8.64562 17.4075 8.99377 17.4075 9.39392V9.50488H19.5112V8.58636H16.7373Z" fill="white"/>
<path d="M19.5111 11.3715H16.8445V12.2603H19.5111V11.3715Z" fill="white"/>
</g>
<defs>
<filter id="filter0_d_2123_1909" x="0.955566" y="0.155505" width="25.5557" height="25.5555" filterUnits="userSpaceOnUse" color-interpolation-filters="sRGB">
<feFlood flood-opacity="0" result="BackgroundImageFix"/>
<feColorMatrix in="SourceAlpha" type="matrix" values="0 0 0 0 0 0 0 0 0 0 0 0 0 0 0 0 0 0 127 0" result="hardAlpha"/>
<feOffset dy="0.2"/>
<feGaussianBlur stdDeviation="0.5"/>
<feColorMatrix type="matrix" values="0 0 0 0 0 0 0 0 0 0 0 0 0 0 0 0 0 0 0.5 0"/>
<feBlend mode="normal" in2="BackgroundImageFix" result="effect1_dropShadow_2123_1909"/>
<feBlend mode="normal" in="SourceGraphic" in2="effect1_dropShadow_2123_1909" result="shape"/>
</filter>
<clipPath id="clip0_2123_1909">
<rect width="11.5556" height="11.5556" fill="white" transform="translate(7.95557 6.95551)"/>
</clipPath>
</defs>
</svg>
