<svg width="10" height="10" viewBox="0 0 10 10" fill="none" xmlns="http://www.w3.org/2000/svg">
<path fill-rule="evenodd" clip-rule="evenodd" d="M2.88916 0.722778C3.09627 0.722778 3.26416 0.890672 3.26416 1.09778H8.13916C8.26913 1.09778 8.38983 1.16507 8.45815 1.27563C8.52648 1.38619 8.53269 1.52424 8.47457 1.64048L7.80842 2.97278L8.47457 4.30507C8.53269 4.42132 8.52648 4.55937 8.45815 4.66993C8.38983 4.78048 8.26913 4.84778 8.13916 4.84778H3.26416V8.22278H3.63916C3.84627 8.22278 4.01416 8.39067 4.01416 8.59778C4.01416 8.80488 3.84627 8.97278 3.63916 8.97278H2.13916C1.93205 8.97278 1.76416 8.80488 1.76416 8.59778C1.76416 8.39067 1.93205 8.22278 2.13916 8.22278H2.51416V1.09778C2.51416 0.890672 2.68205 0.722778 2.88916 0.722778Z" fill="#75798E"/>
</svg>
