<svg width="9" height="9" viewBox="0 0 9 9" fill="none" xmlns="http://www.w3.org/2000/svg">
<path fill-rule="evenodd" clip-rule="evenodd" d="M1.875 6.8625C1.875 7.05925 2.0345 7.21875 2.23125 7.21875L5.03266 7.21875C5.22941 7.21875 5.38891 7.05925 5.38891 6.8625C5.38891 6.66575 5.22941 6.50625 5.03266 6.50625L2.23125 6.50625C2.0345 6.50625 1.875 6.66575 1.875 6.8625ZM6.27953 7.21875C6.47628 7.21875 6.63578 7.05925 6.63578 6.8625L6.63578 3.1943L7.07779 3.70998C7.20583 3.85936 7.43073 3.87666 7.58012 3.74862C7.7295 3.62058 7.7468 3.39568 7.61876 3.24629L6.55001 1.99942C6.45299 1.88623 6.29575 1.84542 6.15593 1.89714C6.01611 1.94887 5.92328 2.08218 5.92328 2.23127L5.92328 6.8625C5.92328 7.05925 6.08278 7.21875 6.27953 7.21875ZM1.875 4.54688C1.875 4.74363 2.0345 4.90313 2.23125 4.90313L5.03266 4.90313C5.22941 4.90313 5.38891 4.74363 5.38891 4.54688C5.38891 4.35013 5.22941 4.19063 5.03266 4.19063L2.23125 4.19063C2.0345 4.19063 1.875 4.35013 1.875 4.54688ZM1.875 2.23127C1.875 2.42802 2.0345 2.58752 2.23125 2.58752L5.03266 2.58752C5.22941 2.58752 5.3889 2.42802 5.3889 2.23127C5.3889 2.03452 5.22941 1.87502 5.03266 1.87502L2.23125 1.87502C2.0345 1.87502 1.875 2.03452 1.875 2.23127Z" fill="#75798E"/>
</svg>
