<svg width="9" height="9" viewBox="0 0 9 9" fill="none" xmlns="http://www.w3.org/2000/svg">
<path fill-rule="evenodd" clip-rule="evenodd" d="M7.125 2.1375C7.125 1.94075 6.9655 1.78125 6.76875 1.78125H3.96734C3.77059 1.78125 3.61109 1.94075 3.61109 2.1375C3.61109 2.33425 3.77059 2.49375 3.96734 2.49375H6.76875C6.9655 2.49375 7.125 2.33425 7.125 2.1375ZM2.72047 1.78125C2.52372 1.78125 2.36422 1.94075 2.36422 2.1375V5.8057L1.92221 5.29002C1.79417 5.14063 1.56927 5.12333 1.41988 5.25138C1.2705 5.37942 1.2532 5.60432 1.38124 5.75371L2.44999 7.00058C2.54701 7.11377 2.70425 7.15458 2.84407 7.10285C2.98389 7.05113 3.07672 6.91782 3.07672 6.76873V2.1375C3.07672 1.94075 2.91722 1.78125 2.72047 1.78125ZM7.125 4.45312C7.125 4.25637 6.9655 4.09687 6.76875 4.09687H3.96734C3.77059 4.09687 3.61109 4.25637 3.61109 4.45312C3.61109 4.64987 3.77059 4.80937 3.96734 4.80937H6.76875C6.9655 4.80937 7.125 4.64987 7.125 4.45312ZM7.125 6.76873C7.125 6.57198 6.9655 6.41248 6.76875 6.41248H3.96734C3.77059 6.41248 3.61109 6.57198 3.61109 6.76873C3.61109 6.96548 3.77059 7.12498 3.96734 7.12498H6.76875C6.9655 7.12498 7.125 6.96548 7.125 6.76873Z" fill="#75798E"/>
</svg>
