<svg width="34" height="34" viewBox="0 0 34 34" fill="none" xmlns="http://www.w3.org/2000/svg">
<g filter="url(#filter0_d_2123_1945)">
<path d="M16.6934 32.2365C25.0669 32.2365 31.8549 25.4485 31.8549 17.0751C31.8549 8.70165 25.0669 1.91364 16.6934 1.91364C8.32 1.91364 1.53198 8.70165 1.53198 17.0751C1.53198 25.4485 8.32 32.2365 16.6934 32.2365Z" fill="#97BFEB"/>
<path d="M31.3549 17.0751C31.3549 25.1724 24.7907 31.7365 16.6934 31.7365C8.59614 31.7365 2.03198 25.1724 2.03198 17.0751C2.03198 8.97779 8.59614 2.41364 16.6934 2.41364C24.7907 2.41364 31.3549 8.97779 31.3549 17.0751Z" stroke="white"/>
</g>
<path fill-rule="evenodd" clip-rule="evenodd" d="M17.1185 9.16664C15.615 9.16664 14.3963 10.3854 14.3963 11.8889C14.3963 13.3923 15.615 14.6111 17.1185 14.6111C18.6219 14.6111 19.8407 13.3923 19.8407 11.8889C19.8407 10.3854 18.6219 9.16664 17.1185 9.16664ZM12.8407 11.8889C12.8407 9.52631 14.7559 7.61108 17.1185 7.61108C19.481 7.61108 21.3963 9.52631 21.3963 11.8889C21.3963 14.2514 19.481 16.1666 17.1185 16.1666C14.7559 16.1666 12.8407 14.2514 12.8407 11.8889ZM14.7301 16.4122L14.8129 16.5007C14.866 16.5575 14.943 16.6401 15.0387 16.7432C15.2303 16.9494 15.4972 17.238 15.799 17.5679C16.2098 18.0169 16.6887 18.5463 17.1309 19.0498L19.4961 16.4239C19.6675 16.2336 19.9216 16.1399 20.1755 16.1733C20.8029 16.2558 21.4244 16.6214 21.9652 17.0708C22.523 17.5344 23.0719 18.1512 23.5555 18.8559C24.3799 20.0576 25.0645 21.5899 25.2409 23.1666H25.674C26.1036 23.1666 26.4518 23.5149 26.4518 23.9444C26.4518 24.374 26.1036 24.7222 25.674 24.7222H8.56293C8.13338 24.7222 7.78516 24.374 7.78516 23.9444C7.78516 23.5149 8.13338 23.1666 8.56293 23.1666H8.99153C9.14758 21.6296 9.7492 20.1886 10.5409 19.023C11.4544 17.6781 12.6885 16.6033 13.9239 16.2043C14.2102 16.1118 14.5242 16.1928 14.7301 16.4122ZM10.5571 23.1666H23.673C23.5027 21.9653 22.964 20.7435 22.2728 19.736C21.8558 19.1283 21.4004 18.624 20.971 18.2672C20.7209 18.0594 20.5015 17.9196 20.3211 17.8322L17.6964 20.7462C17.546 20.9132 17.3307 21.0069 17.1061 21.0033C16.8814 20.9998 16.6692 20.8992 16.5242 20.7275C15.9805 20.0836 15.2503 19.2727 14.6512 18.6178C14.3847 18.3266 14.1457 18.0677 13.9626 17.8704C13.2628 18.2323 12.4818 18.934 11.8277 19.8971C11.1834 20.8457 10.707 21.9839 10.5571 23.1666Z" fill="white"/>
<defs>
<filter id="filter0_d_2123_1945" x="0.531982" y="0.913635" width="32.323" height="32.3229" filterUnits="userSpaceOnUse" color-interpolation-filters="sRGB">
<feFlood flood-opacity="0" result="BackgroundImageFix"/>
<feColorMatrix in="SourceAlpha" type="matrix" values="0 0 0 0 0 0 0 0 0 0 0 0 0 0 0 0 0 0 127 0" result="hardAlpha"/>
<feOffset/>
<feGaussianBlur stdDeviation="0.5"/>
<feColorMatrix type="matrix" values="0 0 0 0 0 0 0 0 0 0 0 0 0 0 0 0 0 0 0.5 0"/>
<feBlend mode="normal" in2="BackgroundImageFix" result="effect1_dropShadow_2123_1945"/>
<feBlend mode="normal" in="SourceGraphic" in2="effect1_dropShadow_2123_1945" result="shape"/>
</filter>
</defs>
</svg>
